<svg aria-hidden="true" style="position: absolute; width: 0; height: 0; overflow: hidden;" version="1.1" xmlns="http://www.w3.org/2000/svg" xmlns:xlink="http://www.w3.org/1999/xlink">
<defs>
<symbol id="icon-dom" viewBox="0 0 40 32">
<path fill="#016936" style="fill: var(--color1, #016936)" d="M15.25 24h-2.5c-0.437 0-0.75 0.375-0.75 0.75v2.5c0 0.437 0.313 0.75 0.75 0.75h2.5c0.375 0 0.75-0.313 0.75-0.75v-2.5c0-0.375-0.375-0.75-0.75-0.75zM15.25 12h-2.5c-0.437 0-0.75 0.375-0.75 0.75v2.5c0 0.437 0.313 0.75 0.75 0.75h2.5c0.375 0 0.75-0.313 0.75-0.75v-2.5c0-0.375-0.375-0.75-0.75-0.75zM9.25 12h-2.5c-0.438 0-0.75 0.375-0.75 0.75v2.5c0 0.437 0.313 0.75 0.75 0.75h2.5c0.375 0 0.75-0.313 0.75-0.75v-2.5c0-0.375-0.375-0.75-0.75-0.75zM9.25 24h-2.5c-0.438 0-0.75 0.375-0.75 0.75v2.5c0 0.437 0.313 0.75 0.75 0.75h2.5c0.375 0 0.75-0.313 0.75-0.75v-2.5c0-0.375-0.375-0.75-0.75-0.75zM9.25 18h-2.5c-0.438 0-0.75 0.375-0.75 0.75v2.5c0 0.437 0.313 0.75 0.75 0.75h2.5c0.375 0 0.75-0.313 0.75-0.75v-2.5c0-0.375-0.375-0.75-0.75-0.75zM15.25 18h-2.5c-0.437 0-0.75 0.375-0.75 0.75v2.5c0 0.437 0.313 0.75 0.75 0.75h2.5c0.375 0 0.75-0.313 0.75-0.75v-2.5c0-0.375-0.375-0.75-0.75-0.75zM33.25 24h-2.5c-0.437 0-0.75 0.375-0.75 0.75v2.5c0 0.437 0.313 0.75 0.75 0.75h2.5c0.375 0 0.75-0.313 0.75-0.75v-2.5c0-0.375-0.375-0.75-0.75-0.75zM33.25 18h-2.5c-0.437 0-0.75 0.375-0.75 0.75v2.5c0 0.437 0.313 0.75 0.75 0.75h2.5c0.375 0 0.75-0.313 0.75-0.75v-2.5c0-0.375-0.375-0.75-0.75-0.75zM38.5 12h-6.5v-10.5c0-0.813-0.687-1.5-1.5-1.5h-13c-0.875 0-1.5 0.688-1.5 1.5v4.5h-2v-5c0-0.5-0.5-1-1-1h-1c-0.563 0-1 0.5-1 1v5h-4v-5c0-0.5-0.5-1-1-1h-1c-0.563 0-1 0.5-1 1v5h-2.5c-0.875 0-1.5 0.687-1.5 1.5v23.5c0 0.563 0.438 1 1 1h1c0.5 0 1-0.437 1-1v-22h16v-6h10v12h8v16c0 0.563 0.437 1 1 1h1c0.5 0 1-0.437 1-1v-17.5c0-0.813-0.687-1.5-1.5-1.5zM25.25 6h-2.5c-0.437 0-0.75 0.375-0.75 0.75v2.5c0 0.437 0.313 0.75 0.75 0.75h2.5c0.375 0 0.75-0.313 0.75-0.75v-2.5c0-0.375-0.375-0.75-0.75-0.75zM25.25 18h-2.5c-0.437 0-0.75 0.375-0.75 0.75v2.5c0 0.437 0.313 0.75 0.75 0.75h2.5c0.375 0 0.75-0.313 0.75-0.75v-2.5c0-0.375-0.375-0.75-0.75-0.75zM25.25 12h-2.5c-0.437 0-0.75 0.375-0.75 0.75v2.5c0 0.437 0.313 0.75 0.75 0.75h2.5c0.375 0 0.75-0.313 0.75-0.75v-2.5c0-0.375-0.375-0.75-0.75-0.75z"></path>
</symbol>
</defs>
</svg>
